<mxfile host="app.diagrams.net" modified="2021-05-14T07:58:21.200Z" agent="5.0 (Macintosh; Intel Mac OS X 10_15_7) AppleWebKit/537.36 (KHTML, like Gecko) Chrome/86.0.4240.193 Safari/537.36" etag="pa70cgAeLdFR61Grnrzx" version="14.6.13" type="github">
  <diagram id="D12E4mVAnuFyWlwLox0A" name="Page-1">
    <mxGraphModel dx="946" dy="536" grid="1" gridSize="10" guides="1" tooltips="1" connect="1" arrows="1" fold="1" page="1" pageScale="1" pageWidth="827" pageHeight="1169" math="0" shadow="0">
      <root>
        <mxCell id="0" />
        <mxCell id="1" parent="0" />
        <mxCell id="DLKnScQ4QhIhd7dRuRl--9" style="edgeStyle=orthogonalEdgeStyle;rounded=0;orthogonalLoop=1;jettySize=auto;html=1;exitX=0.5;exitY=1;exitDx=0;exitDy=0;entryX=0.5;entryY=0;entryDx=0;entryDy=0;" edge="1" parent="1" source="DLKnScQ4QhIhd7dRuRl--1" target="DLKnScQ4QhIhd7dRuRl--2">
          <mxGeometry relative="1" as="geometry" />
        </mxCell>
        <mxCell id="DLKnScQ4QhIhd7dRuRl--1" value="&lt;pre&gt;BrokerStartup#main&lt;/pre&gt;&lt;pre&gt;启动broker&lt;/pre&gt;" style="rounded=1;whiteSpace=wrap;html=1;" vertex="1" parent="1">
          <mxGeometry x="250" y="160" width="190" height="60" as="geometry" />
        </mxCell>
        <mxCell id="DLKnScQ4QhIhd7dRuRl--10" style="edgeStyle=orthogonalEdgeStyle;rounded=0;orthogonalLoop=1;jettySize=auto;html=1;exitX=0.5;exitY=1;exitDx=0;exitDy=0;entryX=0.5;entryY=0;entryDx=0;entryDy=0;" edge="1" parent="1" source="DLKnScQ4QhIhd7dRuRl--2" target="DLKnScQ4QhIhd7dRuRl--3">
          <mxGeometry relative="1" as="geometry" />
        </mxCell>
        <mxCell id="DLKnScQ4QhIhd7dRuRl--2" value="&lt;pre&gt;DefaultMessageStore#start&lt;/pre&gt;&lt;pre&gt;开启消息存储服务&lt;/pre&gt;" style="rounded=1;whiteSpace=wrap;html=1;" vertex="1" parent="1">
          <mxGeometry x="250" y="270" width="190" height="60" as="geometry" />
        </mxCell>
        <mxCell id="DLKnScQ4QhIhd7dRuRl--11" style="edgeStyle=orthogonalEdgeStyle;rounded=0;orthogonalLoop=1;jettySize=auto;html=1;exitX=1;exitY=0.5;exitDx=0;exitDy=0;entryX=0;entryY=0.5;entryDx=0;entryDy=0;" edge="1" parent="1" source="DLKnScQ4QhIhd7dRuRl--3" target="DLKnScQ4QhIhd7dRuRl--4">
          <mxGeometry relative="1" as="geometry" />
        </mxCell>
        <mxCell id="DLKnScQ4QhIhd7dRuRl--3" value="&lt;pre&gt;DefaultMessageStore#addScheduleTask&lt;br&gt;&lt;/pre&gt;&lt;pre&gt;增加定时任务&lt;/pre&gt;" style="rounded=1;whiteSpace=wrap;html=1;" vertex="1" parent="1">
          <mxGeometry x="190" y="380" width="310" height="60" as="geometry" />
        </mxCell>
        <mxCell id="DLKnScQ4QhIhd7dRuRl--7" style="edgeStyle=orthogonalEdgeStyle;rounded=0;orthogonalLoop=1;jettySize=auto;html=1;exitX=0.5;exitY=1;exitDx=0;exitDy=0;entryX=0.5;entryY=0;entryDx=0;entryDy=0;" edge="1" parent="1" source="DLKnScQ4QhIhd7dRuRl--4" target="DLKnScQ4QhIhd7dRuRl--5">
          <mxGeometry relative="1" as="geometry" />
        </mxCell>
        <mxCell id="DLKnScQ4QhIhd7dRuRl--8" style="edgeStyle=orthogonalEdgeStyle;rounded=0;orthogonalLoop=1;jettySize=auto;html=1;exitX=0.5;exitY=1;exitDx=0;exitDy=0;entryX=0.5;entryY=0;entryDx=0;entryDy=0;" edge="1" parent="1" source="DLKnScQ4QhIhd7dRuRl--4" target="DLKnScQ4QhIhd7dRuRl--6">
          <mxGeometry relative="1" as="geometry" />
        </mxCell>
        <mxCell id="DLKnScQ4QhIhd7dRuRl--4" value="&lt;pre&gt;DefaultMessageStore#cleanFilesPeriodically&lt;br&gt;&lt;/pre&gt;&lt;pre&gt;每10s执行一次删除过期文件任务&lt;/pre&gt;" style="rounded=1;whiteSpace=wrap;html=1;" vertex="1" parent="1">
          <mxGeometry x="640" y="160" width="330" height="60" as="geometry" />
        </mxCell>
        <mxCell id="DLKnScQ4QhIhd7dRuRl--5" value="删除CommitLog文件" style="rounded=1;whiteSpace=wrap;html=1;" vertex="1" parent="1">
          <mxGeometry x="640" y="270" width="160" height="60" as="geometry" />
        </mxCell>
        <mxCell id="DLKnScQ4QhIhd7dRuRl--6" value="删除ConsumeQueue文件" style="rounded=1;whiteSpace=wrap;html=1;" vertex="1" parent="1">
          <mxGeometry x="820" y="270" width="150" height="60" as="geometry" />
        </mxCell>
      </root>
    </mxGraphModel>
  </diagram>
</mxfile>
